<?xml version="1.0" encoding="UTF-8"?>
<!DOCTYPE svg PUBLIC "-//W3C//DTD SVG 1.1//EN" "http://www.w3.org/Graphics/SVG/1.1/DTD/svg11.dtd">
<!-- Creator: CorelDRAW 2018 (64-Bit Evaluation Version) -->
<svg xmlns="http://www.w3.org/2000/svg" xml:space="preserve" width="201.68mm" height="83.2804mm" version="1.1" style="shape-rendering:geometricPrecision; text-rendering:geometricPrecision; image-rendering:optimizeQuality; fill-rule:evenodd; clip-rule:evenodd"
viewBox="0 0 20923.13 8639.84"
 xmlns:xlink="http://www.w3.org/1999/xlink">
 <defs>
  <style type="text/css">
   <![CDATA[
    .str0 {stroke:#FEFEFE;stroke-width:155.62;stroke-miterlimit:22.9256}
    .fil4 {fill:none;fill-rule:nonzero}
    .fil2 {fill:#2B2A29}
    .fil1 {fill:#E84F28}
    .fil0 {fill:#E31E24}
    .fil6 {fill:#FB4F3B}
    .fil5 {fill:#0B4E8F;fill-rule:nonzero}
    .fil3 {fill:#FB4F3B;fill-rule:nonzero}
   ]]>
  </style>
 </defs>
 <g id="Layer_x0020_1">
  <metadata id="CorelCorpID_0Corel-Layer"/>
  <g id="_2556415470640">
   <path class="fil0" d="M4168.4 3358.97c-306.9,-648.77 -609.72,-1288.96 -916.62,-1937.76 -680.87,-968.28 -1877.68,128.52 -1231.99,949.34 597.64,471.12 1090.99,881.02 1688.63,1352.13 304.17,-56.02 427.73,-203.17 459.98,-363.71z"/>
   <path class="fil0" d="M4675.09 3200.4c-57.76,-538.1 -236.68,-1602.12 -258.73,-2002.46 -92.96,-1358.01 -1612.03,-927.26 -1041.84,261.86 295.44,593.53 520.01,1246.9 851.36,1881.19 184.5,48.83 412.27,-34.72 449.2,-140.59z"/>
   <path class="fil1" d="M5210.96 745.5c-272.09,-217.44 -621.06,-208.05 -683.55,109.58 -19.95,209.57 6.9,526.79 48.69,893.6 50.43,442.73 121.81,947.51 159.72,1432.7 34.69,46.82 78.89,79.21 125.18,98.67l349.96 -2534.56z"/>
   <path class="fil2" d="M4214.73 3383.19c201.47,27.36 416.26,-6.69 491.47,-167.49 41.64,55.44 94.06,91.7 148.29,111.58l-206.72 1497.07c-22.08,-5.94 -45.01,-15.8 -69.77,-30.06 -48.56,-395.94 -97.13,-651.09 -145.7,-1047.03 -156.57,290.47 -392.77,271.61 -676.82,13.11 77.01,-35.7 378.39,-48.12 459.24,-377.17z"/>
  </g>
  <path class="fil3" d="M13299.43 4944.14l144.85 -971.53 188 0 -144.86 971.53 -187.99 0zm705.1 -188.71l45.28 -311.99c-4.26,-0.48 -9,-0.94 -14.22,-1.18 -5.46,-0.24 -13.28,-0.24 -23.94,-0.24 -77.05,0 -137.74,22.28 -182.79,66.61 -44.81,44.57 -67.33,104.31 -67.33,179.47 0,36.98 8.78,66.15 26.08,87.48 17.3,21.34 40.77,32.01 70.41,32.01 23.71,0 47.65,-4.26 71.83,-12.8 24.42,-8.53 49.31,-21.81 74.67,-39.35zm-28.45 188.71l7.12 -51.21c-32.01,22.28 -62.83,38.41 -92.23,48.6 -29.39,10.19 -59.51,15.41 -89.85,15.41 -70.17,0 -125.64,-24.42 -166.89,-73.25 -41.26,-48.84 -61.88,-114.98 -61.88,-198.43 0,-58.56 11.14,-113.09 33.66,-163.82 22.52,-50.73 54.77,-93.88 96.97,-129.68 45.27,-38.41 98.62,-65.67 159.55,-81.79 60.93,-16.35 158.37,-24.41 292.79,-24.41l108.34 0 -96.48 658.59 -191.09 0zm267.46 0l98.62 -658.59 190.13 0 -12.56 91.04c37.22,-41.49 66.39,-69.23 87.95,-82.97 21.34,-14 43.39,-20.86 65.43,-20.86 17.78,0 36.52,3.55 56.43,10.9 19.92,7.35 40.78,18.49 63.07,33.19l-92.23 200.57c-17.78,-18.96 -33.89,-32.96 -48.59,-41.96 -14.94,-9 -28.92,-13.52 -42.44,-13.52 -18.96,0 -38.41,7.59 -57.85,22.52 -19.67,15.18 -39.35,37.46 -58.79,67.09l-58.31 392.6 -190.85 0zm927.95 -188.71l45.28 -311.99c-4.26,-0.48 -9,-0.94 -14.22,-1.18 -5.46,-0.24 -13.28,-0.24 -23.94,-0.24 -77.05,0 -137.74,22.28 -182.79,66.61 -44.81,44.57 -67.33,104.31 -67.33,179.47 0,36.98 8.78,66.15 26.08,87.48 17.3,21.34 40.77,32.01 70.41,32.01 23.71,0 47.65,-4.26 71.83,-12.8 24.42,-8.53 49.31,-21.81 74.67,-39.35zm-28.45 188.71l7.12 -51.21c-32.01,22.28 -62.83,38.41 -92.23,48.6 -29.39,10.19 -59.51,15.41 -89.85,15.41 -70.17,0 -125.64,-24.42 -166.89,-73.25 -41.26,-48.84 -61.88,-114.98 -61.88,-198.43 0,-58.56 11.14,-113.09 33.66,-163.82 22.52,-50.73 54.77,-93.88 96.97,-129.68 45.27,-38.41 98.62,-65.67 159.55,-81.79 60.93,-16.35 158.37,-24.41 292.79,-24.41l108.34 0 -96.48 658.59 -191.09 0zm405.44 0l-167.85 -658.59 193.45 0 82.74 354.18 178.99 -354.18 206.25 0 -358.22 658.59 -135.37 0zm945.72 -39.35c-35.31,17.54 -73.72,31.05 -115.45,40.07 -41.73,9 -84.87,13.51 -129.92,13.51 -98.63,0 -176.86,-28.69 -234.47,-85.82 -57.61,-57.14 -86.53,-135.14 -86.53,-233.76 0,-109.29 33.44,-197.49 100.05,-265.06 66.85,-67.32 154.81,-100.98 264.1,-100.98 88.66,0 156.94,25.37 205.07,76.33 48.13,50.97 72.31,123.28 72.31,216.92 0,11.62 -0.24,23.48 -0.95,35.8 -0.71,12.32 -1.9,24.42 -3.32,36.51l-436.69 0.72c0,2.37 -0.24,5.69 -0.71,10.43 -0.48,4.5 -0.72,7.58 -0.72,9.02 0,47.17 13.98,82.97 41.96,107.86 27.97,24.66 68.75,36.98 121.86,36.98 30.11,0 64.48,-5.69 103.12,-17.07 38.64,-11.38 83.69,-29.4 135.6,-54.06l-35.32 172.6zm-338.78 -380.27l223.33 0 0 -13.27c0,-34.14 -8.06,-60.22 -23.94,-78.01 -15.88,-17.78 -39.12,-26.79 -69.71,-26.79 -31.53,0 -58.09,9.96 -79.65,29.87 -21.81,19.92 -38.41,49.32 -50.03,88.19zm406.16 419.62l144.85 -971.53 188 0 -144.86 971.53 -187.99 0zm1220.72 -39.35c-35.31,17.54 -73.72,31.05 -115.45,40.07 -41.73,9 -84.87,13.51 -129.92,13.51 -98.63,0 -176.86,-28.69 -234.47,-85.82 -57.61,-57.14 -86.53,-135.14 -86.53,-233.76 0,-109.29 33.44,-197.49 100.05,-265.06 66.85,-67.32 154.81,-100.98 264.1,-100.98 88.66,0 156.94,25.37 205.07,76.33 48.13,50.97 72.31,123.28 72.31,216.92 0,11.62 -0.24,23.48 -0.95,35.8 -0.71,12.32 -1.9,24.42 -3.32,36.51l-436.69 0.72c0,2.37 -0.24,5.69 -0.71,10.43 -0.48,4.5 -0.72,7.58 -0.72,9.02 0,47.17 13.98,82.97 41.96,107.86 27.97,24.66 68.75,36.98 121.86,36.98 30.11,0 64.48,-5.69 103.12,-17.07 38.64,-11.38 83.69,-29.4 135.6,-54.06l-35.32 172.6zm-338.78 -380.27l223.33 0 0 -13.27c0,-34.14 -8.06,-60.22 -23.94,-78.01 -15.88,-17.78 -39.12,-26.79 -69.71,-26.79 -31.53,0 -58.09,9.96 -79.65,29.87 -21.81,19.92 -38.41,49.32 -50.03,88.19zm840 277.38l52.15 -359.88c-4.74,-0.48 -9.96,-0.95 -15.64,-1.18 -5.93,-0.24 -14.22,-0.24 -25.37,-0.24 -74.45,0 -132.76,18.25 -174.49,54.99 -41.96,36.52 -62.83,87.01 -62.83,151.5 0,50.25 17.07,89.14 50.97,115.92 34.14,26.79 82.97,40.3 146.75,40.3 3.32,0 8.06,-0.24 14.22,-0.72 6.17,-0.47 11.14,-0.71 14.23,-0.71zm172.11 132.76c-36.98,7.35 -71.59,13.04 -103.84,16.83 -32.24,3.56 -61.64,5.46 -88.67,5.46 -65.67,0 -119.24,-4.26 -160.73,-12.8 -41.49,-8.54 -77.05,-22.52 -106.69,-41.96 -44.33,-29.63 -78.47,-66.85 -102.18,-111.18 -23.47,-44.57 -35.32,-93.89 -35.32,-147.94 0,-111.18 38.88,-200.56 116.64,-267.89 78.01,-67.33 181.6,-100.99 311.28,-100.99 12.09,0 24.65,0.47 37.69,1.42 12.8,0.94 25.6,1.9 38.17,2.84l45.05 -305.83 192.27 0 -143.66 962.05zm183.29 -833.79c0,-27.74 9.49,-50.97 28.22,-69.93 18.73,-18.96 41.96,-28.45 69.7,-28.45 27.74,0 50.97,9.48 69.94,28.69 18.96,19.2 28.45,42.43 28.45,69.7 0,27.03 -9.48,50.03 -28.69,69.23 -19.2,19.2 -42.44,28.69 -69.71,28.69 -27.03,0 -50.01,-9.48 -69.22,-28.69 -19.2,-19.2 -28.7,-42.2 -28.7,-69.23zm-112.37 843.27l98.62 -658.59 187.29 0 -97.91 658.59 -187.99 0zm710.55 -29.63c-28.22,14.45 -56.43,25.13 -84.87,32.01 -28.22,6.87 -56.19,10.43 -83.93,10.43 -67.56,0 -118.77,-18.26 -153.86,-54.53 -34.85,-36.51 -52.39,-90.32 -52.39,-161.68 0,-9.72 0.72,-21.81 2.38,-36.51 1.66,-14.46 4.03,-30.82 7.35,-48.84l36.75 -221.9 -133 0 22.76 -147.93 134.66 0 22.76 -136.56 193.21 0 -20.86 136.56 146.51 0 -21.57 147.93 -146.52 0 -35.31 237.79c-0.48,1.89 -0.72,4.03 -0.72,6.16 -1.42,12.09 -2.14,20.86 -2.14,26.55 0,24.18 4.98,41.96 14.94,53.58 9.96,11.61 25.37,17.3 46.23,17.3 11.62,0 26.08,-2.84 43.62,-8.3 17.78,-5.69 38.88,-14.7 64.01,-27.26l0 175.2zm112.65 -813.64c0,-27.74 9.49,-50.97 28.22,-69.93 18.73,-18.96 41.96,-28.45 69.7,-28.45 27.74,0 50.97,9.48 69.94,28.69 18.96,19.2 28.45,42.43 28.45,69.7 0,27.03 -9.48,50.03 -28.69,69.23 -19.2,19.2 -42.44,28.69 -69.71,28.69 -27.03,0 -50.01,-9.48 -69.22,-28.69 -19.2,-19.2 -28.7,-42.2 -28.7,-69.23zm-112.37 843.27l98.62 -658.59 187.29 0 -97.91 658.59 -187.99 0zm271.49 -302.51c0,-105.74 35.8,-193.69 107.4,-264.34 71.37,-70.65 160.74,-105.97 267.66,-105.97 90.8,0 164.77,28.7 221.9,86.07 57.13,57.61 85.83,131.34 85.83,221.66 0,108.34 -35.8,198.67 -107.63,270.98 -71.83,72.31 -161.21,108.34 -268.14,108.34 -94.12,0 -168.55,-28.69 -224.04,-85.82 -55.23,-57.14 -82.97,-134.18 -82.97,-230.91zm362.96 -212.42c-45.51,0 -84.4,20.86 -116.64,62.83 -32.47,41.95 -48.59,93.64 -48.59,154.81 0,47.17 11.14,84.63 33.19,112.38 22.28,27.49 52.39,41.25 90.32,41.25 45.28,0 83.69,-20.62 115.22,-62.11 31.54,-41.49 47.18,-92.93 47.18,-154.1 0,-46.94 -11.14,-84.4 -33.19,-112.61 -22.28,-28.21 -51.45,-42.43 -87.49,-42.43zm299.23 514.92l97.91 -658.59 189.66 0 -11.86 73.73c36.75,-29.4 72.55,-51.21 108.1,-65.44 35.32,-13.98 72.55,-21.09 111.43,-21.09 55.95,0 99.8,16.12 131.34,48.13 31.77,32.23 47.65,76.33 47.65,132.28 0,13.04 -0.48,25.6 -1.42,37.93 -0.95,12.32 -2.38,23.94 -4.04,35.09l-62.59 417.96 -193.45 0 59.75 -397.81c1.66,-12.57 3.08,-23.94 4.04,-34.14 0.94,-10.2 1.42,-18.26 1.42,-24.18 0,-21.81 -5.22,-39.11 -15.65,-52.15 -10.43,-13.04 -24.17,-19.44 -41.25,-19.44 -25.6,0 -52.63,8.3 -81.08,24.89 -28.45,16.84 -57.13,41.25 -86.29,73.73l-64.01 429.11 -189.66 0z"/>
  <g id="_2556415472176">
   <g>
    <path class="fil4 str0" d="M5783.06 3135.75c36.64,6.26 74.19,11.62 112.62,15.19 38.44,3.58 77.77,5.36 117.99,5.36 245.82,0 438.9,-77.77 578.34,-234.19 140.33,-156.43 210.06,-371.85 210.06,-645.38 0,-175.19 -45.59,-311.96 -137.66,-412.96 -91.18,-100.11 -217.21,-150.17 -375.43,-150.17 -45.59,0 -92.96,5.36 -142.13,16.09 -49.16,9.82 -101.9,25.92 -160,46.48l-203.79 1359.59zm-992.21 1822.6l424.59 -2844.31c-113.52,69.73 -210.06,160 -288.72,269.95 -78.66,109.95 -125.15,164.48 -141.24,164.48 -11.62,0 -20.55,-2.69 -25.02,-8.94 -4.47,-6.26 -6.26,-18.77 -6.26,-37.54 0,-108.15 48.26,-239.56 145.7,-394.2 96.54,-154.64 223.46,-296.77 380.79,-425.49l127.82 -863.48 723.15 0 -73.31 471.96c80.45,-26.82 158.22,-46.48 233.31,-60.78 75.08,-13.4 147.48,-20.55 217.21,-20.55 306.59,0 561.35,96.53 763.37,289.61 201.12,193.08 302.12,434.42 302.12,724.04 0,456.76 -144.81,829.52 -433.53,1118.24 -288.72,287.83 -662.36,431.74 -1121.81,431.74 -60.78,0 -164.47,-6.26 -309.28,-18.78l-17.88 -2.68 -181.46 1206.73 -719.57 0zm4842.34 -1365.84c-133.19,66.15 -277.99,117.1 -435.31,151.06 -157.33,33.98 -320.01,50.96 -489.85,50.96 -371.85,0 -666.82,-108.16 -884.03,-323.59 -217.22,-215.42 -326.26,-509.51 -326.26,-881.36 0,-412.07 126.03,-744.6 377.21,-999.35 252.07,-253.85 583.69,-380.78 995.78,-380.78 334.3,0 591.75,95.64 773.19,287.83 181.46,192.18 272.64,464.81 272.64,817.89 0,43.8 -0.9,88.49 -3.58,134.98 -2.69,46.48 -7.15,92.06 -12.51,137.66l-1646.52 2.68c0,8.94 -0.89,21.45 -2.68,39.33 -1.79,16.98 -2.69,28.6 -2.69,33.97 0,177.89 52.74,312.86 158.22,406.72 105.48,92.96 259.22,139.44 459.45,139.44 113.52,0 243.13,-21.45 388.83,-64.36 145.7,-42.9 315.54,-110.84 511.29,-203.79l-133.19 650.73zm-1277.34 -1433.77l842.03 0 0 -50.06c0,-128.72 -30.4,-227.04 -90.29,-294.08 -59.88,-67.04 -147.48,-101.01 -262.79,-101.01 -118.89,0 -219,37.54 -300.34,112.62 -82.24,75.09 -144.81,185.93 -188.61,332.52zm1483.16 1582.16l546.15 -3663.09 708.85 0 -546.16 3663.09 -708.84 0zm1372.32 -3179.5c0,-104.58 35.76,-192.19 106.38,-263.7 70.61,-71.51 158.21,-107.26 262.79,-107.26 104.58,0 192.19,35.75 263.7,108.15 71.51,72.4 107.26,160 107.26,262.8 0,101.9 -35.75,188.61 -108.15,261.01 -72.41,72.4 -160,108.15 -262.8,108.15 -101.9,0 -188.61,-35.75 -261.01,-108.15 -72.4,-72.4 -108.16,-159.11 -108.16,-261.01zm-423.69 3179.5l371.85 -2483.18 706.16 0 -369.17 2483.18 -708.84 0zm932.54 0l369.17 -2483.18 715.1 0 -44.69 278c138.55,-110.84 273.52,-193.08 407.6,-246.71 133.19,-52.74 273.53,-79.55 420.12,-79.55 210.95,0 376.32,60.78 495.21,181.45 119.77,121.57 179.66,287.83 179.66,498.79 0,49.15 -1.78,96.53 -5.36,143.01 -3.57,46.49 -8.93,90.29 -15.2,132.29l-235.98 1575.9 -729.4 0 225.26 -1499.92c6.26,-47.38 11.62,-90.28 15.2,-128.72 3.57,-38.44 5.35,-68.83 5.35,-91.18 0,-82.24 -19.66,-147.48 -58.99,-196.65 -39.33,-49.16 -91.18,-73.3 -155.53,-73.3 -96.54,0 -198.44,31.28 -305.71,93.85 -107.26,63.47 -215.41,155.54 -325.36,278l-241.35 1617.91 -715.1 0zm5006.15 0l369.17 -2483.18 719.57 0 -42.02 299.45c120.67,-117.1 248.5,-203.79 385.26,-261.9 135.86,-57.2 284.25,-85.81 445.14,-85.81 154.64,0 281.57,33.97 380.79,101.01 98.33,67.04 174.3,172.52 228.83,317.32 174.31,-139.44 338.78,-244.03 492.52,-313.74 153.75,-69.73 301.24,-104.58 442.47,-104.58 221.68,0 393.3,60.78 514.87,182.35 121.57,120.66 182.35,293.19 182.35,516.66 0,59 -4.47,134.97 -14.3,227.94 -9.83,92.07 -25.03,210.95 -45.6,355.76l-186.81 1248.75 -731.2 0 240.46 -1575.9c1.78,-3.57 2.68,-8.93 2.68,-16.09 5.36,-51.84 8.94,-89.39 10.73,-112.62 0,-95.64 -20.55,-167.15 -61.68,-214.53 -41.11,-47.37 -102.79,-70.61 -186.82,-70.61 -87.59,0 -185.03,31.28 -292.29,92.95 -107.27,61.68 -210.96,148.38 -312.86,260.12l-240.45 1636.69 -724.93 0 240.45 -1575.9c1.78,-3.57 2.69,-8.93 2.69,-16.09 5.36,-51.84 8.93,-91.17 10.72,-117.99 0,-92.07 -20.55,-161.79 -61.68,-209.17 -41.11,-47.37 -101.9,-70.61 -181.45,-70.61 -98.33,0 -200.24,32.17 -308.39,95.64 -107.27,63.46 -212.75,155.53 -317.32,276.21l-241.35 1617.91 -719.57 0z"/>
    <path id="1" class="fil5" d="M5783.06 3135.75c36.64,6.26 74.19,11.62 112.62,15.19 38.44,3.58 77.77,5.36 117.99,5.36 245.82,0 438.9,-77.77 578.34,-234.19 140.33,-156.43 210.06,-371.85 210.06,-645.38 0,-175.19 -45.59,-311.96 -137.66,-412.96 -91.18,-100.11 -217.21,-150.17 -375.43,-150.17 -45.59,0 -92.96,5.36 -142.13,16.09 -49.16,9.82 -101.9,25.92 -160,46.48l-203.79 1359.59zm-992.21 1822.6l424.59 -2844.31c-113.52,69.73 -210.06,160 -288.72,269.95 -78.66,109.95 -125.15,164.48 -141.24,164.48 -11.62,0 -20.55,-2.69 -25.02,-8.94 -4.47,-6.26 -6.26,-18.77 -6.26,-37.54 0,-108.15 48.26,-239.56 145.7,-394.2 96.54,-154.64 223.46,-296.77 380.79,-425.49l127.82 -863.48 723.15 0 -73.31 471.96c80.45,-26.82 158.22,-46.48 233.31,-60.78 75.08,-13.4 147.48,-20.55 217.21,-20.55 306.59,0 561.35,96.53 763.37,289.61 201.12,193.08 302.12,434.42 302.12,724.04 0,456.76 -144.81,829.52 -433.53,1118.24 -288.72,287.83 -662.36,431.74 -1121.81,431.74 -60.78,0 -164.47,-6.26 -309.28,-18.78l-17.88 -2.68 -181.46 1206.73 -719.57 0zm4842.34 -1365.84c-133.19,66.15 -277.99,117.1 -435.31,151.06 -157.33,33.98 -320.01,50.96 -489.85,50.96 -371.85,0 -666.82,-108.16 -884.03,-323.59 -217.22,-215.42 -326.26,-509.51 -326.26,-881.36 0,-412.07 126.03,-744.6 377.21,-999.35 252.07,-253.85 583.69,-380.78 995.78,-380.78 334.3,0 591.75,95.64 773.19,287.83 181.46,192.18 272.64,464.81 272.64,817.89 0,43.8 -0.9,88.49 -3.58,134.98 -2.69,46.48 -7.15,92.06 -12.51,137.66l-1646.52 2.68c0,8.94 -0.89,21.45 -2.68,39.33 -1.79,16.98 -2.69,28.6 -2.69,33.97 0,177.89 52.74,312.86 158.22,406.72 105.48,92.96 259.22,139.44 459.45,139.44 113.52,0 243.13,-21.45 388.83,-64.36 145.7,-42.9 315.54,-110.84 511.29,-203.79l-133.19 650.73zm-1277.34 -1433.77l842.03 0 0 -50.06c0,-128.72 -30.4,-227.04 -90.29,-294.08 -59.88,-67.04 -147.48,-101.01 -262.79,-101.01 -118.89,0 -219,37.54 -300.34,112.62 -82.24,75.09 -144.81,185.93 -188.61,332.52zm1483.16 1582.16l546.15 -3663.09 708.85 0 -546.16 3663.09 -708.84 0zm1372.32 -3179.5c0,-104.58 35.76,-192.19 106.38,-263.7 70.61,-71.51 158.21,-107.26 262.79,-107.26 104.58,0 192.19,35.75 263.7,108.15 71.51,72.4 107.26,160 107.26,262.8 0,101.9 -35.75,188.61 -108.15,261.01 -72.41,72.4 -160,108.15 -262.8,108.15 -101.9,0 -188.61,-35.75 -261.01,-108.15 -72.4,-72.4 -108.16,-159.11 -108.16,-261.01zm-423.69 3179.5l371.85 -2483.18 706.16 0 -369.17 2483.18 -708.84 0zm932.54 0l369.17 -2483.18 715.1 0 -44.69 278c138.55,-110.84 273.52,-193.08 407.6,-246.71 133.19,-52.74 273.53,-79.55 420.12,-79.55 210.95,0 376.32,60.78 495.21,181.45 119.77,121.57 179.66,287.83 179.66,498.79 0,49.15 -1.78,96.53 -5.36,143.01 -3.57,46.49 -8.93,90.29 -15.2,132.29l-235.98 1575.9 -729.4 0 225.26 -1499.92c6.26,-47.38 11.62,-90.28 15.2,-128.72 3.57,-38.44 5.35,-68.83 5.35,-91.18 0,-82.24 -19.66,-147.48 -58.99,-196.65 -39.33,-49.16 -91.18,-73.3 -155.53,-73.3 -96.54,0 -198.44,31.28 -305.71,93.85 -107.26,63.47 -215.41,155.54 -325.36,278l-241.35 1617.91 -715.1 0zm5006.15 0l369.17 -2483.18 719.57 0 -42.02 299.45c120.67,-117.1 248.5,-203.79 385.26,-261.9 135.86,-57.2 284.25,-85.81 445.14,-85.81 154.64,0 281.57,33.97 380.79,101.01 98.33,67.04 174.3,172.52 228.83,317.32 174.31,-139.44 338.78,-244.03 492.52,-313.74 153.75,-69.73 301.24,-104.58 442.47,-104.58 221.68,0 393.3,60.78 514.87,182.35 121.57,120.66 182.35,293.19 182.35,516.66 0,59 -4.47,134.97 -14.3,227.94 -9.83,92.07 -25.03,210.95 -45.6,355.76l-186.81 1248.75 -731.2 0 240.46 -1575.9c1.78,-3.57 2.68,-8.93 2.68,-16.09 5.36,-51.84 8.94,-89.39 10.73,-112.62 0,-95.64 -20.55,-167.15 -61.68,-214.53 -41.11,-47.37 -102.79,-70.61 -186.82,-70.61 -87.59,0 -185.03,31.28 -292.29,92.95 -107.27,61.68 -210.96,148.38 -312.86,260.12l-240.45 1636.69 -724.93 0 240.45 -1575.9c1.78,-3.57 2.69,-8.93 2.69,-16.09 5.36,-51.84 8.93,-91.17 10.72,-117.99 0,-92.07 -20.55,-161.79 -61.68,-209.17 -41.11,-47.37 -101.9,-70.61 -181.45,-70.61 -98.33,0 -200.24,32.17 -308.39,95.64 -107.27,63.46 -212.75,155.53 -317.32,276.21l-241.35 1617.91 -719.57 0z"/>
   </g>
   <g>
    <path class="fil4 str0" d="M15091.23 2716.52c0,115.31 33.07,208.28 98.33,277.1 65.24,68.82 153.74,103.69 265.48,103.69 153.74,0 282.46,-58.11 387.04,-173.42 103.69,-115.3 155.54,-255.65 155.54,-421.91 0,-122.46 -29.5,-217.21 -89.4,-282.46 -58.99,-65.25 -143.91,-98.33 -253.85,-98.33 -153.75,0 -286.04,59 -396.88,176.09 -110.84,117.1 -166.26,256.55 -166.26,419.23zm515.76 -1141.47c73.3,-30.4 144.81,-51.85 215.42,-66.15 69.72,-13.41 134.97,-20.56 195.75,-20.56 230.62,0 416.55,82.24 556.89,247.61 140.33,164.47 210.95,384.36 210.95,657.89 0,410.29 -126.93,748.17 -379.9,1013.65 -252.96,265.48 -576.55,397.78 -971.63,397.78 -335.21,0 -603.36,-103.69 -803.59,-310.17 -201.13,-206.49 -301.24,-482.7 -301.24,-828.62 0,-199.33 37.54,-398.67 112.63,-599.79 75.08,-200.24 209.16,-448.73 403.13,-745.49l813.43 -1243.38 859.02 0 -910.86 1497.24z"/>
    <path id="1" class="fil3" d="M15091.23 2716.52c0,115.31 33.07,208.28 98.33,277.1 65.24,68.82 153.74,103.69 265.48,103.69 153.74,0 282.46,-58.11 387.04,-173.42 103.69,-115.3 155.54,-255.65 155.54,-421.91 0,-122.46 -29.5,-217.21 -89.4,-282.46 -58.99,-65.25 -143.91,-98.33 -253.85,-98.33 -153.75,0 -286.04,59 -396.88,176.09 -110.84,117.1 -166.26,256.55 -166.26,419.23zm515.76 -1141.47c73.3,-30.4 144.81,-51.85 215.42,-66.15 69.72,-13.41 134.97,-20.56 195.75,-20.56 230.62,0 416.55,82.24 556.89,247.61 140.33,164.47 210.95,384.36 210.95,657.89 0,410.29 -126.93,748.17 -379.9,1013.65 -252.96,265.48 -576.55,397.78 -971.63,397.78 -335.21,0 -603.36,-103.69 -803.59,-310.17 -201.13,-206.49 -301.24,-482.7 -301.24,-828.62 0,-199.33 37.54,-398.67 112.63,-599.79 75.08,-200.24 209.16,-448.73 403.13,-745.49l813.43 -1243.38 859.02 0 -910.86 1497.24z"/>
   </g>
  </g>
  <path class="fil6" d="M4482.06 6659.3c51.06,-1.14 558.25,-142.3 656.55,-166.45l1812.03 -473.09c252.88,-67.59 152.5,-81.23 355.2,187.78l177.11 243.26c77.04,113.3 570.66,754.96 588.25,830.48 -21.91,10.52 -50.1,18.54 -76.22,28.85l-913.04 312.73c-295.39,87.86 -690.53,246.51 -994.21,336.65l-495.27 170.15c-248.95,93.11 -194.18,100.57 -433.59,-299.25l-393.93 -674.53c-21.14,-35.22 -37.96,-63.81 -57.98,-99.66l-219.94 -384.37c-0.95,-2.12 -3.61,-9.96 -4.97,-12.54zm4219.43 -1105.41l0 1.7c-0.25,53.78 -317.34,116.59 -379.61,136.9 -28.37,9.24 -52.5,12.38 -76.74,19.57 -51.42,15.26 -109.22,28.83 -157.41,43.97 -28.28,8.88 -53.04,12.68 -83.54,21.52l-400.89 106.93c-59.53,14.74 -100.14,33.8 -162.38,38.98 8.26,35.48 42.41,71.33 65.04,101.36l913.68 1231.93c167.4,246.21 194.6,223.78 -85.96,348.52l-2492.72 895.73c-56.1,17.47 -111.89,41.53 -175.07,61.32 -55.68,17.45 -114.46,39.4 -180.57,55.83 -127.25,31.63 -246.68,43.44 -334.39,-70.21 -20.69,-26.82 -34.49,-41.87 -53.78,-68.82l-133.14 -217.17c-58.48,-97.66 -109.27,-197.1 -168.49,-295.68l-296.01 -527.23c-13.43,-24.75 -24.99,-46.51 -40.05,-73.81 -29.57,-53.64 -58.56,-97.47 -85.49,-150.98 -28.49,-56.62 -56.33,-99.9 -84.51,-151.95 -51.28,-94.76 -106.61,-208.61 -166.32,-297.85 -75.35,1.68 -175.89,42.1 -246.86,59.58 -44.43,10.94 -73.17,21.62 -117.27,31.56 -202.27,45.59 -391.61,104.98 -590.04,154.16 -240.15,59.53 -473.92,131.38 -717.18,184.6 -38.03,8.32 -74.47,18.3 -119.28,29.57 -170.7,42.92 -350.48,32.29 -455.88,-129.86 -53.96,-83.02 -84.52,-186.09 -128.63,-274.24 -135.85,-271.51 -242.13,-549.27 -379.45,-820.43l-350.2 -753.34c-11.88,-25.67 -17.76,-44.5 -29.01,-67.33 -22.46,-45.64 -40.89,-88.25 -64.33,-137.11l-822.38 -1787.58c-48.56,-113.73 -102.62,-204.6 -102.62,-335.31 0,-79.8 90.73,-111.14 157.61,-113.85 175.71,-7.1 332.85,-30.56 507.93,-34.84l1260.34 -96.6c175.43,0 191.05,31.3 280.13,166.44 48.7,73.88 90.08,151.54 137.29,230.54l1184.06 1986.29c23.64,39.29 44.66,74.82 68.94,114.97l136.7 231.14c122.72,204.21 446.28,767.72 556.46,932.37 30.09,-2.5 55.6,-11.73 86.82,-18.23 250.32,-52.07 495.39,-122.2 741.33,-177.97l1632.44 -390.01c49.03,-10.13 118.65,-34.7 165.61,-35.75 -3.37,-40.51 -181.17,-285.21 -217.51,-334.22 -194.34,-262.04 -368.2,-541.17 -564.06,-802.14 -84.23,-112.24 -193.88,-237.82 32.31,-279.2 37.13,-6.8 64.34,-9 100.83,-12.99 154.12,-16.83 650.06,-109.5 839.7,-140.85 385.11,-63.67 421.02,-126.95 657.87,176.53l324.05 402.81c152,199.58 315.08,391.83 471.41,588.24 115.07,144.57 140.97,126.28 141.21,242.5zm-2284.79 -1005.79c0,-29.48 21.31,-26.13 48.17,-30.65l1002.31 -179.6c23.73,0 52.2,30.82 65.34,48.51l656.27 832.48c96.78,123.23 141.68,147.01 56.33,169.07 -25.23,6.52 -50.76,12.24 -71.04,16.51l-828.42 204.7c-32.5,9.72 -104.56,30.96 -141.1,34 -6.98,-26.16 -29.38,-47.38 -45.13,-68.72l-147.51 -202.79c-32.34,-46.08 -66.66,-86.94 -101.3,-135.16l-100.09 -136.36c-34.34,-44.64 -64.02,-88.82 -99.96,-136.5 -18.93,-25.13 -29.76,-42.42 -47.4,-66.45 -36.68,-49.96 -246.47,-323.96 -246.47,-349.05zm-6005.26 -1480.47c0,-33.78 305.99,-39.9 356.42,-46.3l1123.01 -93.86c17.18,0 56.4,79.41 67.33,99.07 155,278.87 352.34,591.02 504.68,870.3l379.41 654.03c23.59,39.26 40.46,75.92 64.04,111.11l125.26 216.31c42.35,75.82 79.84,142.5 124.78,216.77l315.96 542.31c21.82,40.07 42.19,75.56 63.78,111.38l250.68 432.44c147.31,250.76 166.03,243.87 44.04,273.21 -39.83,9.58 -65.63,16.29 -105.13,26.2 -73.76,18.49 -137.72,35.09 -211.59,51.06l-853.54 205.84c-38.43,8.47 -72.79,16.97 -106.08,25.26 -75.44,18.76 -276.17,71.75 -330.97,71.75 -2.58,-31.01 -7.29,-37.38 -19.2,-59.63 -77.14,-144.05 -179.36,-373.58 -258,-530.22l-113.74 -236.58c-21.37,-42.42 -37.19,-74.24 -58.43,-116.74l-796.17 -1638.59c-94.29,-221.71 -284.45,-558.59 -372.77,-765.79 -41.46,-97.26 -193.76,-369.4 -193.76,-419.31z"/>
 </g>
</svg>
