<?xml version="1.0" encoding="UTF-8"?>
<!DOCTYPE svg PUBLIC "-//W3C//DTD SVG 1.1//EN" "http://www.w3.org/Graphics/SVG/1.1/DTD/svg11.dtd">
<!-- Creator: CorelDRAW 2018 (64-Bit Evaluation Version) -->
<svg xmlns="http://www.w3.org/2000/svg" xml:space="preserve" width="183.247mm" height="47.0442mm" version="1.1" style="shape-rendering:geometricPrecision; text-rendering:geometricPrecision; image-rendering:optimizeQuality; fill-rule:evenodd; clip-rule:evenodd"
viewBox="0 0 5047.34 1295.78"
 xmlns:xlink="http://www.w3.org/1999/xlink">
 <defs>
  <style type="text/css">
   <![CDATA[
    .fil0 {fill:#FEFEFE}
    .fil1 {fill:#FEFEFE;fill-rule:nonzero}
   ]]>
  </style>
 </defs>
 <g id="Layer_x0020_1">
  <metadata id="CorelCorpID_0Corel-Layer"/>
  <g id="_2713874934800">
   <path class="fil0" d="M619.62 871.15c-81.48,-172.25 -161.88,-342.22 -243.36,-514.47 -180.77,-257.08 -498.52,34.12 -327.09,252.05 158.67,125.08 289.66,233.91 448.33,358.99 80.76,-14.87 113.56,-53.94 122.12,-96.56z"/>
   <path class="fil0" d="M754.15 829.05c-15.34,-142.87 -62.84,-425.36 -68.69,-531.65 -24.68,-360.55 -427.99,-246.19 -276.61,69.52 78.44,157.58 138.06,331.05 226.04,499.45 48.98,12.96 109.46,-9.22 119.26,-37.33z"/>
   <path class="fil0" d="M896.42 177.27c-72.24,-57.73 -164.89,-55.24 -181.48,29.09 -5.3,55.64 1.83,139.86 12.93,237.25 13.39,117.54 32.34,251.56 42.41,380.38 9.21,12.43 20.94,21.03 33.23,26.2l92.91 -672.92z"/>
   <path class="fil0" d="M631.92 877.58c53.49,7.26 110.52,-1.78 130.48,-44.47 11.06,14.72 24.97,24.35 39.37,29.62l-54.88 397.47c-5.86,-1.58 -11.95,-4.19 -18.52,-7.98 -12.89,-105.12 -25.79,-172.86 -38.68,-277.98 -41.57,77.12 -104.28,72.11 -179.69,3.48 20.45,-9.48 100.46,-12.77 121.93,-100.14z"/>
  </g>
  <path class="fil1" d="M3043.91 1292.01l38.46 -257.94 49.92 0 -38.46 257.94 -49.91 0zm187.2 -50.1l12.02 -82.83c-1.13,-0.13 -2.39,-0.25 -3.78,-0.31 -1.45,-0.06 -3.53,-0.06 -6.36,-0.06 -20.46,0 -36.57,5.92 -48.53,17.69 -11.9,11.83 -17.88,27.7 -17.88,47.65 0,9.82 2.33,17.56 6.92,23.23 4.59,5.67 10.82,8.5 18.69,8.5 6.29,0 12.65,-1.13 19.07,-3.4 6.48,-2.26 13.09,-5.79 19.83,-10.45zm-7.55 50.1l1.89 -13.6c-8.5,5.92 -16.68,10.2 -24.49,12.9 -7.8,2.7 -15.8,4.09 -23.86,4.09 -18.63,0 -33.36,-6.48 -44.31,-19.45 -10.95,-12.97 -16.43,-30.53 -16.43,-52.68 0,-15.55 2.96,-30.03 8.94,-43.49 5.98,-13.47 14.54,-24.92 25.75,-34.43 12.02,-10.2 26.18,-17.44 42.36,-21.72 16.18,-4.34 42.05,-6.48 77.73,-6.48l28.76 0 -25.62 174.85 -50.73 0zm71.01 0l26.18 -174.85 50.48 0 -3.34 24.17c9.88,-11.01 17.63,-18.38 23.35,-22.03 5.67,-3.72 11.52,-5.54 17.37,-5.54 4.72,0 9.7,0.94 14.98,2.89 5.29,1.95 10.83,4.91 16.74,8.81l-24.49 53.25c-4.72,-5.04 -9,-8.75 -12.9,-11.14 -3.97,-2.39 -7.68,-3.59 -11.27,-3.59 -5.04,0 -10.2,2.02 -15.36,5.98 -5.22,4.03 -10.45,9.95 -15.61,17.81l-15.48 104.23 -50.67 0zm246.37 -50.1l12.02 -82.83c-1.13,-0.13 -2.39,-0.25 -3.78,-0.31 -1.45,-0.06 -3.53,-0.06 -6.36,-0.06 -20.46,0 -36.57,5.92 -48.53,17.69 -11.9,11.83 -17.88,27.7 -17.88,47.65 0,9.82 2.33,17.56 6.92,23.23 4.59,5.67 10.82,8.5 18.69,8.5 6.29,0 12.65,-1.13 19.07,-3.4 6.48,-2.26 13.09,-5.79 19.83,-10.45zm-7.55 50.1l1.89 -13.6c-8.5,5.92 -16.68,10.2 -24.49,12.9 -7.8,2.7 -15.8,4.09 -23.86,4.09 -18.63,0 -33.36,-6.48 -44.31,-19.45 -10.95,-12.97 -16.43,-30.53 -16.43,-52.68 0,-15.55 2.96,-30.03 8.94,-43.49 5.98,-13.47 14.54,-24.92 25.75,-34.43 12.02,-10.2 26.18,-17.44 42.36,-21.72 16.18,-4.34 42.05,-6.48 77.73,-6.48l28.76 0 -25.62 174.85 -50.73 0zm107.64 0l-44.56 -174.85 51.36 0 21.97 94.04 47.52 -94.04 54.76 0 -95.11 174.85 -35.94 0zm251.09 -10.45c-9.38,4.66 -19.57,8.24 -30.65,10.64 -11.08,2.39 -22.53,3.59 -34.49,3.59 -26.19,0 -46.96,-7.62 -62.25,-22.78 -15.3,-15.17 -22.97,-35.88 -22.97,-62.06 0,-29.02 8.88,-52.43 26.56,-70.37 17.75,-17.87 41.1,-26.81 70.12,-26.81 23.54,0 41.67,6.73 54.45,20.27 12.78,13.53 19.2,32.73 19.2,57.59 0,3.08 -0.06,6.23 -0.25,9.51 -0.19,3.27 -0.5,6.48 -0.88,9.69l-115.94 0.19c0,0.63 -0.06,1.51 -0.19,2.77 -0.13,1.2 -0.19,2.01 -0.19,2.39 0,12.52 3.71,22.03 11.14,28.64 7.43,6.55 18.25,9.82 32.35,9.82 7.99,0 17.12,-1.51 27.38,-4.53 10.26,-3.02 22.22,-7.81 36,-14.35l-9.38 45.82zm-89.94 -100.96l59.29 0 0 -3.52c0,-9.06 -2.14,-15.99 -6.36,-20.71 -4.22,-4.72 -10.39,-7.11 -18.51,-7.11 -8.37,0 -15.42,2.64 -21.15,7.93 -5.79,5.29 -10.2,13.09 -13.28,23.42zm107.83 111.41l38.46 -257.94 49.92 0 -38.46 257.94 -49.91 0zm324.1 -10.45c-9.38,4.66 -19.57,8.24 -30.65,10.64 -11.08,2.39 -22.53,3.59 -34.49,3.59 -26.19,0 -46.96,-7.62 -62.25,-22.78 -15.3,-15.17 -22.97,-35.88 -22.97,-62.06 0,-29.02 8.88,-52.43 26.56,-70.37 17.75,-17.87 41.1,-26.81 70.12,-26.81 23.54,0 41.67,6.73 54.45,20.27 12.78,13.53 19.2,32.73 19.2,57.59 0,3.08 -0.06,6.23 -0.25,9.51 -0.19,3.27 -0.5,6.48 -0.88,9.69l-115.94 0.19c0,0.63 -0.06,1.51 -0.19,2.77 -0.13,1.2 -0.19,2.01 -0.19,2.39 0,12.52 3.71,22.03 11.14,28.64 7.43,6.55 18.25,9.82 32.35,9.82 7.99,0 17.12,-1.51 27.38,-4.53 10.26,-3.02 22.22,-7.81 36,-14.35l-9.38 45.82zm-89.94 -100.96l59.29 0 0 -3.52c0,-9.06 -2.14,-15.99 -6.36,-20.71 -4.22,-4.72 -10.39,-7.11 -18.51,-7.11 -8.37,0 -15.42,2.64 -21.15,7.93 -5.79,5.29 -10.2,13.09 -13.28,23.42zm223.02 73.64l13.85 -95.55c-1.26,-0.13 -2.64,-0.25 -4.15,-0.31 -1.58,-0.06 -3.78,-0.06 -6.73,-0.06 -19.77,0 -35.25,4.84 -46.33,14.6 -11.14,9.7 -16.68,23.1 -16.68,40.22 0,13.34 4.53,23.67 13.53,30.78 9.06,7.11 22.03,10.7 38.96,10.7 0.88,0 2.14,-0.06 3.78,-0.19 1.64,-0.12 2.96,-0.19 3.78,-0.19zm45.7 35.25c-9.82,1.95 -19.01,3.46 -27.57,4.47 -8.56,0.94 -16.37,1.45 -23.54,1.45 -17.44,0 -31.66,-1.13 -42.67,-3.4 -11.01,-2.27 -20.46,-5.98 -28.33,-11.14 -11.77,-7.87 -20.83,-17.75 -27.13,-29.52 -6.23,-11.83 -9.38,-24.93 -9.38,-39.28 0,-29.52 10.32,-53.25 30.97,-71.12 20.71,-17.88 48.22,-26.81 82.65,-26.81 3.21,0 6.54,0.12 10.01,0.38 3.4,0.25 6.8,0.5 10.13,0.75l11.96 -81.2 51.05 0 -38.14 255.42zm48.66 -221.37c0,-7.37 2.52,-13.53 7.49,-18.57 4.97,-5.04 11.14,-7.55 18.5,-7.55 7.37,0 13.53,2.52 18.57,7.62 5.04,5.1 7.55,11.27 7.55,18.5 0,7.18 -2.52,13.28 -7.62,18.38 -5.1,5.1 -11.27,7.62 -18.51,7.62 -7.18,0 -13.28,-2.52 -18.38,-7.62 -5.1,-5.1 -7.62,-11.2 -7.62,-18.38zm-29.83 223.89l26.18 -174.85 49.73 0 -26 174.85 -49.91 0zm188.65 -7.87c-7.49,3.84 -14.98,6.67 -22.53,8.5 -7.49,1.82 -14.92,2.77 -22.28,2.77 -17.94,0 -31.53,-4.85 -40.85,-14.48 -9.25,-9.69 -13.91,-23.98 -13.91,-42.93 0,-2.58 0.19,-5.79 0.63,-9.69 0.44,-3.84 1.07,-8.18 1.95,-12.97l9.76 -58.91 -35.31 0 6.04 -39.27 35.75 0 6.04 -36.26 51.3 0 -5.54 36.26 38.9 0 -5.73 39.27 -38.9 0 -9.38 63.13c-0.13,0.5 -0.19,1.07 -0.19,1.64 -0.38,3.21 -0.57,5.54 -0.57,7.05 0,6.42 1.32,11.14 3.97,14.23 2.64,3.08 6.73,4.59 12.27,4.59 3.08,0 6.92,-0.75 11.58,-2.2 4.72,-1.51 10.32,-3.9 16.99,-7.24l0 46.52zm29.91 -216.02c0,-7.37 2.52,-13.53 7.49,-18.57 4.97,-5.04 11.14,-7.55 18.5,-7.55 7.37,0 13.53,2.52 18.57,7.62 5.04,5.1 7.55,11.27 7.55,18.5 0,7.18 -2.52,13.28 -7.62,18.38 -5.1,5.1 -11.27,7.62 -18.51,7.62 -7.18,0 -13.28,-2.52 -18.38,-7.62 -5.1,-5.1 -7.62,-11.2 -7.62,-18.38zm-29.83 223.89l26.18 -174.85 49.73 0 -26 174.85 -49.91 0zm72.08 -80.32c0,-28.07 9.51,-51.42 28.51,-70.18 18.95,-18.76 42.68,-28.14 71.06,-28.14 24.11,0 43.75,7.62 58.91,22.85 15.17,15.3 22.79,34.87 22.79,58.85 0,28.76 -9.51,52.75 -28.58,71.94 -19.07,19.2 -42.8,28.76 -71.19,28.76 -24.99,0 -44.75,-7.62 -59.48,-22.78 -14.66,-15.17 -22.03,-35.63 -22.03,-61.31zm96.37 -56.4c-12.08,0 -22.41,5.54 -30.97,16.68 -8.62,11.14 -12.9,24.86 -12.9,41.1 0,12.52 2.96,22.47 8.81,29.84 5.92,7.3 13.91,10.95 23.98,10.95 12.02,0 22.22,-5.48 30.59,-16.49 8.37,-11.01 12.53,-24.67 12.53,-40.91 0,-12.46 -2.96,-22.41 -8.81,-29.9 -5.92,-7.49 -13.66,-11.27 -23.23,-11.27zm79.45 136.71l26 -174.85 50.36 0 -3.15 19.58c9.76,-7.81 19.26,-13.6 28.7,-17.37 9.38,-3.71 19.26,-5.6 29.58,-5.6 14.85,0 26.5,4.28 34.87,12.78 8.43,8.56 12.65,20.27 12.65,35.12 0,3.46 -0.13,6.8 -0.38,10.07 -0.25,3.27 -0.63,6.36 -1.07,9.32l-16.62 110.97 -51.36 0 15.86 -105.62c0.44,-3.34 0.82,-6.36 1.07,-9.06 0.25,-2.71 0.38,-4.85 0.38,-6.42 0,-5.79 -1.39,-10.38 -4.16,-13.85 -2.77,-3.46 -6.42,-5.16 -10.95,-5.16 -6.8,0 -13.97,2.2 -21.53,6.61 -7.55,4.47 -15.17,10.95 -22.91,19.58l-16.99 113.93 -50.36 0z"/>
  <g id="_2713874935920">
   <path class="fil1" d="M1048.32 811.88c9.73,1.66 19.7,3.08 29.9,4.03 10.21,0.95 20.65,1.42 31.33,1.42 65.27,0 116.53,-20.65 153.55,-62.18 37.26,-41.53 55.77,-98.73 55.77,-171.35 0,-46.51 -12.1,-82.82 -36.55,-109.64 -24.21,-26.58 -57.67,-39.87 -99.68,-39.87 -12.1,0 -24.68,1.42 -37.74,4.27 -13.05,2.61 -27.05,6.88 -42.48,12.34l-54.11 360.97zm-263.43 483.9l112.73 -755.16c-30.14,18.51 -55.77,42.48 -76.65,71.67 -20.88,29.19 -33.23,43.67 -37.5,43.67 -3.08,0 -5.46,-0.71 -6.64,-2.37 -1.19,-1.66 -1.66,-4.98 -1.66,-9.97 0,-28.71 12.81,-63.6 38.68,-104.66 25.63,-41.06 59.33,-78.79 101.1,-112.97l33.94 -229.25 192 0 -19.46 125.31c21.36,-7.12 42.01,-12.34 61.94,-16.14 19.93,-3.56 39.16,-5.46 57.67,-5.46 81.4,0 149.04,25.63 202.67,76.89 53.4,51.26 80.21,115.34 80.21,192.23 0,121.27 -38.45,220.24 -115.1,296.89 -76.65,76.42 -175.86,114.63 -297.84,114.63 -16.14,0 -43.67,-1.66 -82.11,-4.99l-4.75 -0.71 -48.18 320.39 -191.04 0zm1285.64 -362.63c-35.36,17.56 -73.81,31.09 -115.57,40.11 -41.77,9.02 -84.96,13.53 -130.05,13.53 -98.73,0 -177.04,-28.72 -234.71,-85.91 -57.67,-57.2 -86.62,-135.27 -86.62,-234 0,-109.4 33.46,-197.69 100.15,-265.33 66.92,-67.4 154.97,-101.1 264.38,-101.1 88.76,0 157.11,25.39 205.28,76.42 48.18,51.02 72.39,123.41 72.39,217.15 0,11.63 -0.24,23.5 -0.95,35.84 -0.71,12.34 -1.9,24.44 -3.32,36.55l-437.15 0.71c0,2.37 -0.24,5.7 -0.71,10.44 -0.48,4.51 -0.71,7.59 -0.71,9.02 0,47.23 14,83.06 42.01,107.98 28,24.68 68.82,37.02 121.98,37.02 30.14,0 64.55,-5.7 103.23,-17.09 38.68,-11.39 83.77,-29.43 135.75,-54.11l-35.36 172.77zm-339.13 -380.67l223.56 0 0 -13.29c0,-34.17 -8.07,-60.28 -23.97,-78.08 -15.9,-17.8 -39.16,-26.82 -69.77,-26.82 -31.57,0 -58.15,9.97 -79.74,29.9 -21.83,19.94 -38.45,49.36 -50.07,88.28zm393.78 420.06l145 -972.55 188.2 0 -145.01 972.55 -188.2 0zm364.35 -844.16c0,-27.77 9.49,-51.03 28.24,-70.01 18.75,-18.99 42,-28.48 69.77,-28.48 27.77,0 51.03,9.49 70.01,28.71 18.99,19.22 28.48,42.48 28.48,69.77 0,27.05 -9.49,50.07 -28.71,69.3 -19.23,19.22 -42.48,28.71 -69.77,28.71 -27.05,0 -50.07,-9.49 -69.3,-28.71 -19.22,-19.22 -28.72,-42.24 -28.72,-69.3zm-112.49 844.16l98.73 -659.28 187.49 0 -98.02 659.28 -188.2 0zm247.59 0l98.02 -659.28 189.86 0 -11.87 73.81c36.78,-29.43 72.62,-51.26 108.22,-65.5 35.36,-14 72.62,-21.12 111.54,-21.12 56.01,0 99.91,16.14 131.48,48.17 31.8,32.28 47.7,76.42 47.7,132.43 0,13.05 -0.47,25.63 -1.42,37.97 -0.95,12.34 -2.37,23.97 -4.04,35.12l-62.65 418.4 -193.66 0 59.81 -398.23c1.66,-12.58 3.08,-23.97 4.04,-34.17 0.95,-10.21 1.42,-18.28 1.42,-24.21 0,-21.83 -5.22,-39.16 -15.66,-52.21 -10.44,-13.05 -24.21,-19.46 -41.29,-19.46 -25.63,0 -52.69,8.3 -81.17,24.92 -28.48,16.85 -57.19,41.3 -86.38,73.81l-64.08 429.55 -189.86 0zm1329.13 0l98.02 -659.28 191.04 0 -11.16 79.5c32.04,-31.09 65.98,-54.11 102.29,-69.53 36.07,-15.19 75.47,-22.78 118.19,-22.78 41.06,0 74.76,9.02 101.1,26.82 26.11,17.8 46.28,45.8 60.75,84.25 46.28,-37.02 89.94,-64.79 130.76,-83.3 40.82,-18.51 79.98,-27.77 117.48,-27.77 58.86,0 104.42,16.14 136.7,48.41 32.28,32.04 48.41,77.84 48.41,137.17 0,15.66 -1.19,35.83 -3.8,60.52 -2.61,24.45 -6.65,56.01 -12.11,94.45l-49.6 331.54 -194.13 0 63.84 -418.4c0.47,-0.95 0.71,-2.37 0.71,-4.27 1.42,-13.76 2.37,-23.73 2.85,-29.9 0,-25.39 -5.46,-44.38 -16.37,-56.96 -10.92,-12.58 -27.29,-18.75 -49.6,-18.75 -23.26,0 -49.12,8.3 -77.6,24.68 -28.48,16.37 -56.01,39.4 -83.06,69.06l-63.84 434.54 -192.47 0 63.84 -418.4c0.47,-0.95 0.71,-2.37 0.71,-4.27 1.42,-13.76 2.37,-24.21 2.85,-31.33 0,-24.45 -5.46,-42.95 -16.37,-55.53 -10.92,-12.58 -27.05,-18.75 -48.17,-18.75 -26.11,0 -53.16,8.54 -81.88,25.39 -28.48,16.85 -56.48,41.29 -84.25,73.33l-64.08 429.55 -191.04 0z"/>
   <path class="fil1" d="M3519.63 700.58c0,30.62 8.78,55.3 26.11,73.57 17.32,18.27 40.82,27.53 70.49,27.53 40.82,0 74.99,-15.43 102.76,-46.04 27.53,-30.61 41.3,-67.87 41.3,-112.02 0,-32.51 -7.83,-57.67 -23.73,-74.99 -15.66,-17.33 -38.21,-26.11 -67.4,-26.11 -40.82,0 -75.94,15.66 -105.37,46.75 -29.43,31.09 -44.14,68.11 -44.14,111.31zm136.93 -303.06c19.46,-8.07 38.45,-13.77 57.2,-17.56 18.51,-3.56 35.83,-5.46 51.97,-5.46 61.23,0 110.59,21.83 147.85,65.74 37.26,43.67 56.01,102.05 56.01,174.67 0,108.93 -33.7,198.64 -100.86,269.12 -67.16,70.49 -153.07,105.61 -257.97,105.61 -89,0 -160.19,-27.53 -213.35,-82.35 -53.4,-54.82 -79.98,-128.16 -79.98,-220 0,-52.92 9.97,-105.85 29.9,-159.24 19.93,-53.16 55.53,-119.14 107.03,-197.93l215.96 -330.12 228.07 0 -241.83 397.52z"/>
  </g>
 </g>
</svg>
